<?xml version="1.0" standalone="no"?>
<!DOCTYPE svg PUBLIC "-//W3C//DTD SVG 20010904//EN"
 "http://www.w3.org/TR/2001/REC-SVG-20010904/DTD/svg10.dtd">
<svg version="1.0" xmlns="http://www.w3.org/2000/svg"
 width="500.000000pt" height="500.000000pt" viewBox="0 0 500.000000 500.000000"
 preserveAspectRatio="xMidYMid meet">

<g transform="translate(0.000000,500.000000) scale(0.100000,-0.100000)"
fill="#000000" stroke="none">
<path d="M2140 4904 c-221 -32 -499 -122 -718 -233 -301 -153 -516 -324 -748
-595 -128 -148 -222 -291 -315 -481 -142 -288 -225 -590 -239 -870 -19 -390
37 -741 173 -1079 70 -175 148 -330 169 -334 11 -2 25 16 48 65 77 162 174
386 300 688 34 83 68 164 75 180 8 17 77 179 155 360 316 732 341 779 539 975
229 227 475 358 761 405 145 24 613 36 1135 30 451 -6 816 2 831 18 12 11 -19
66 -72 131 -63 75 -272 250 -394 330 -336 221 -722 368 -1072 411 -157 19
-495 18 -628 -1z"/>
<path d="M4809 3448 c-19 -23 -33 -45 -32 -50 2 -4 -5 -4 -14 -1 -13 5 -15 2
-10 -11 4 -9 3 -15 -2 -12 -6 4 -106 -67 -139 -99 -2 -2 2 -6 9 -11 8 -4 10
-3 5 4 -4 7 -2 12 3 12 6 0 11 -4 11 -10 0 -5 8 -6 17 -3 15 6 16 5 3 -9 -8
-9 -23 -14 -33 -12 -10 1 -15 -1 -12 -7 7 -11 -18 -39 -35 -39 -6 0 -8 -5 -5
-10 4 -6 18 -2 36 10 33 24 36 20 13 -16 -15 -22 -15 -24 0 -18 12 5 16 0 16
-18 0 -18 -8 -26 -32 -34 -18 -5 -32 -15 -30 -22 3 -15 -40 -16 -56 0 -6 6
-15 8 -19 3 -5 -4 -2 -10 5 -12 6 -3 12 -11 12 -19 0 -17 -37 -19 -42 -3 -7
21 -45 0 -44 -24 1 -18 -4 -22 -28 -22 -16 0 -31 6 -33 13 -3 7 4 12 16 12 12
0 24 7 28 15 9 24 -3 29 -29 11 -12 -9 -26 -16 -30 -16 -12 0 -10 38 2 45 16
10 12 25 -7 25 -14 0 -15 -2 -5 -9 11 -7 10 -10 -3 -15 -23 -8 -27 -8 -20 4 3
6 1 10 -4 10 -6 0 -11 -4 -11 -9 0 -4 -11 -6 -25 -3 -18 3 -31 -2 -41 -14 -9
-11 -13 -13 -9 -6 7 14 -40 17 -49 3 -4 -5 -18 -7 -34 -4 -45 8 -141 13 -107
5 16 -4 -106 -6 -270 -4 -367 4 -1228 -15 -1310 -28 -146 -25 -260 -117 -337
-272 -49 -99 -134 -293 -140 -318 -2 -8 -9 -21 -15 -28 -7 -7 -13 -17 -13 -22
0 -6 287 -7 703 -3 386 3 899 2 1141 -2 l438 -7 -5 -46 c-6 -53 -76 -193 -119
-239 -17 -17 -27 -36 -23 -42 3 -6 2 -10 -3 -9 -5 2 -41 -28 -81 -67 -114
-110 -137 -130 -152 -133 -22 -6 -39 -23 -33 -34 3 -5 -2 -8 -12 -6 -12 2 -18
-2 -16 -10 1 -8 -2 -11 -7 -8 -14 9 -42 -5 -34 -17 4 -6 0 -8 -9 -5 -8 4 -21
2 -29 -4 -11 -8 -10 -9 4 -4 9 3 17 0 17 -5 0 -7 -11 -9 -25 -7 -14 3 -22 1
-18 -5 3 -5 -3 -6 -17 -2 -15 5 -20 4 -16 -4 4 -6 17 -11 29 -12 21 0 21 -1 2
-8 -12 -5 -25 -3 -33 6 -15 15 -26 18 -18 4 7 -11 -55 -66 -63 -54 -9 13 -119
11 -114 -2 2 -6 19 -9 39 -7 19 2 48 -1 64 -8 32 -13 40 -30 15 -30 -8 0 -15
-7 -15 -15 0 -20 -10 -19 -26 3 -9 11 -13 13 -14 4 0 -18 -20 -5 -20 13 0 9 6
12 17 8 11 -4 14 -3 9 5 -4 6 -24 11 -44 11 -20 0 -75 2 -122 4 -47 2 -121 -1
-165 -8 -87 -14 -77 -16 90 -18 55 -1 99 -5 98 -10 -6 -29 -10 -32 -28 -17
-17 14 -18 13 -12 -2 5 -15 0 -18 -36 -19 -23 -1 -46 -1 -50 0 -10 2 -1278 1
-1297 -1 -31 -3 -63 2 -56 9 9 9 60 11 274 12 94 1 172 5 172 9 0 5 -75 9
-166 10 -92 1 -169 4 -172 7 -3 3 82 5 189 4 107 0 188 -3 182 -6 -34 -13 -3
-20 99 -21 87 -2 117 1 136 14 13 8 26 13 30 10 3 -3 0 -6 -6 -6 -7 0 -12 -4
-12 -9 0 -5 104 -9 231 -10 154 -1 228 2 224 9 -3 5 1 10 9 10 9 0 16 7 16 15
0 13 -37 15 -262 17 -663 6 -927 3 -940 -9 -6 -7 -23 -13 -37 -13 -21 0 -23 2
-11 11 11 7 6 8 -20 3 -19 -3 -37 -10 -38 -15 -2 -5 -8 -6 -13 -3 -13 8 -84
-35 -140 -85 -71 -63 -96 -105 -214 -376 -14 -33 -227 -516 -255 -580 -10 -22
-48 -106 -84 -188 -69 -154 -72 -162 -56 -152 6 3 10 1 10 -4 0 -6 -7 -11 -15
-11 -8 0 -15 -6 -15 -14 0 -10 12 -14 38 -14 49 0 112 16 112 28 0 6 11 10 25
10 14 0 25 4 25 9 0 5 10 11 23 14 12 4 31 13 42 22 11 9 13 13 5 9 -13 -7
-13 -5 -1 9 16 20 35 23 26 5 -4 -7 2 -3 13 9 11 13 24 23 28 23 13 0 74 51
70 59 -3 4 14 8 37 9 23 2 51 5 62 8 11 3 16 2 10 -3 -14 -11 -17 -33 -5 -33
6 0 10 5 10 10 0 6 8 10 18 9 10 0 12 -3 5 -6 -7 -2 -13 -8 -13 -13 0 -11 60
-31 72 -24 5 3 16 -2 23 -12 11 -15 14 -16 15 -4 0 12 3 11 11 -2 5 -10 15
-18 20 -18 6 0 7 5 4 10 -3 6 -1 10 4 10 6 0 11 -5 11 -10 0 -7 18 -9 48 -6
36 4 42 3 24 -4 -13 -6 -29 -7 -35 -4 -8 4 -7 2 1 -7 7 -7 30 -13 55 -12 28 1
36 -1 22 -6 -17 -7 -17 -8 7 -13 15 -3 29 0 32 6 3 7 9 6 18 -4 7 -8 29 -16
48 -16 19 -1 76 -11 125 -23 120 -30 357 -39 551 -21 79 7 144 16 144 21 0 4
16 5 35 2 21 -3 35 -2 35 5 0 5 8 8 19 5 10 -3 22 0 25 6 4 5 13 8 21 5 7 -3
23 0 35 6 13 7 32 13 44 15 58 7 328 86 391 114 22 10 51 22 65 26 37 11 71
46 65 66 -8 26 22 38 80 32 44 -4 56 -1 98 27 26 18 47 36 47 41 0 5 7 9 15 9
31 0 220 138 220 161 0 4 4 11 9 16 5 5 6 3 2 -5 -4 -6 -4 -12 0 -12 10 0 219
213 270 275 54 67 125 164 122 168 -2 1 6 13 18 25 11 12 27 35 35 49 8 15 29
50 47 78 17 27 32 54 32 59 0 5 10 25 22 45 42 67 173 380 163 389 -3 3 0 11
5 17 17 20 60 199 63 259 1 30 5 50 8 45 10 -17 31 93 32 171 1 43 5 76 9 74
23 -14 -11 429 -40 531 -5 17 -7 36 -5 43 3 6 0 12 -5 12 -6 0 -10 19 -10 43
0 69 -19 104 -54 98 -5 0 -8 11 -8 25 0 14 4 23 10 19 6 -4 13 7 16 24 4 17 9
31 13 31 4 0 15 15 25 34 10 19 25 37 32 40 8 3 14 14 14 25 0 11 4 22 10 26
5 3 7 12 3 21 -3 9 0 14 7 12 13 -3 57 59 48 67 -2 3 -20 -14 -39 -37z m-39
-98 c0 -5 -5 -10 -11 -10 -5 0 -7 5 -4 10 3 6 8 10 11 10 2 0 4 -4 4 -10z
m-76 -32 c-23 -28 -36 -38 -49 -38 -5 0 6 14 25 30 42 36 50 38 24 8z m-14
-230 c0 -13 -5 -30 -10 -38 -10 -16 -9 -18 -15 30 -2 19 4 30 16 30 5 0 9 -10
9 -22z m-393 -4 c-3 -3 -12 -4 -19 -1 -8 3 -5 6 6 6 11 1 17 -2 13 -5z m-1560
-30 c-3 -3 -12 -4 -19 -1 -8 3 -5 6 6 6 11 1 17 -2 13 -5z m191 -1 c-32 -2
-86 -2 -120 0 -35 2 -9 3 57 3 66 0 94 -1 63 -3z m115 0 c-7 -2 -19 -2 -25 0
-7 3 -2 5 12 5 14 0 19 -2 13 -5z m74 1 c-3 -3 -12 -4 -19 -1 -8 3 -5 6 6 6
11 1 17 -2 13 -5z m1213 -9 c0 -10 -10 -15 -26 -15 -22 0 -25 2 -14 15 7 8 19
15 26 15 8 0 14 -7 14 -15z m-1713 -1 c-3 -3 -12 -4 -19 -1 -8 3 -5 6 6 6 11
1 17 -2 13 -5z m1449 -10 c-3 -9 -6 -20 -6 -25 0 -5 -4 -9 -8 -9 -5 0 -8 10
-6 23 3 28 2 27 15 27 6 0 8 -7 5 -16z m127 -4 c3 -11 1 -23 -4 -26 -5 -3 -9
6 -9 20 0 31 6 34 13 6z m-163 -16 c0 -8 -6 -14 -14 -14 -9 0 -12 7 -9 20 6
22 23 18 23 -6z m85 16 c-3 -5 -11 -10 -16 -10 -6 0 -7 5 -4 10 3 6 11 10 16
10 6 0 7 -4 4 -10z m372 -22 c-3 -8 -6 -5 -6 6 -1 11 2 17 5 13 3 -3 4 -12 1
-19z m83 7 c0 -8 -4 -15 -10 -15 -5 0 -10 7 -10 15 0 8 5 15 10 15 6 0 10 -7
10 -15z m-1325 -5 c3 -5 1 -10 -4 -10 -6 0 -11 5 -11 10 0 6 2 10 4 10 3 0 8
-4 11 -10z m102 4 c-3 -3 -12 -4 -19 -1 -8 3 -5 6 6 6 11 1 17 -2 13 -5z m48
-4 c-3 -5 -12 -10 -18 -10 -7 0 -6 4 3 10 19 12 23 12 15 0z m60 0 c3 -5 -1
-10 -10 -10 -9 0 -13 5 -10 10 3 6 8 10 10 10 2 0 7 -4 10 -10z m165 0 c0 -5
-5 -10 -11 -10 -5 0 -7 5 -4 10 3 6 8 10 11 10 2 0 4 -4 4 -10z m183 3 c-7 -2
-19 -2 -25 0 -7 3 -2 5 12 5 14 0 19 -2 13 -5z m57 -3 c0 -5 -7 -7 -15 -4 -8
4 -15 8 -15 10 0 2 7 4 15 4 8 0 15 -4 15 -10z m70 -10 c0 -11 -2 -20 -4 -20
-2 0 -6 9 -9 20 -3 11 -1 20 4 20 5 0 9 -9 9 -20z m230 10 c0 -5 -7 -10 -15
-10 -8 0 -15 5 -15 10 0 6 7 10 15 10 8 0 15 -4 15 -10z m70 0 c0 -5 -4 -10
-10 -10 -5 0 -10 5 -10 10 0 6 5 10 10 10 6 0 10 -4 10 -10z m118 1 c4 -1 1
-5 -5 -9 -7 -4 -29 -6 -49 -4 -42 5 -30 18 15 16 17 -1 34 -2 39 -3z m-1543
-11 c3 -6 -1 -7 -9 -4 -18 7 -21 14 -7 14 6 0 13 -4 16 -10z m88 3 c-7 -2 -19
-2 -25 0 -7 3 -2 5 12 5 14 0 19 -2 13 -5z m254 1 c-3 -3 -12 -4 -19 -1 -8 3
-5 6 6 6 11 1 17 -2 13 -5z m390 0 c-3 -3 -12 -4 -19 -1 -8 3 -5 6 6 6 11 1
17 -2 13 -5z m430 0 c-3 -3 -12 -4 -19 -1 -8 3 -5 6 6 6 11 1 17 -2 13 -5z
m693 -14 c0 -5 -7 -10 -15 -10 -8 0 -15 5 -15 10 0 6 7 10 15 10 8 0 15 -4 15
-10z m-32 -32 c-7 -19 -38 -22 -38 -4 0 10 9 16 21 16 12 0 19 -5 17 -12z
m-2138 -18 c0 -5 -4 -10 -10 -10 -5 0 -10 5 -10 10 0 6 5 10 10 10 6 0 10 -4
10 -10z m70 -10 c0 -5 -4 -10 -10 -10 -5 0 -10 5 -10 10 0 6 5 10 10 10 6 0
10 -4 10 -10z m2080 -27 c0 -29 -17 -50 -30 -37 -9 9 -8 17 2 33 16 26 28 27
28 4z m-383 -35 c-3 -8 -6 -5 -6 6 -1 11 2 17 5 13 3 -3 4 -12 1 -19z m193
-19 c0 -5 -4 -9 -10 -9 -5 0 -10 7 -10 16 0 8 5 12 10 9 6 -3 10 -10 10 -16z
m230 -44 c0 -8 -7 -15 -15 -15 -8 0 -15 7 -15 15 0 8 7 15 15 15 8 0 15 -7 15
-15z m-350 -47 c0 -18 -2 -20 -9 -8 -6 8 -7 18 -5 22 9 14 14 9 14 -14z m320
-8 c0 -11 -6 -20 -14 -20 -18 0 -29 16 -21 30 11 18 35 11 35 -10z m-550 6 c0
-3 -4 -8 -10 -11 -5 -3 -10 -1 -10 4 0 6 5 11 10 11 6 0 10 -2 10 -4z m652
-76 c3 -16 1 -30 -4 -30 -4 0 -8 14 -8 30 0 17 2 30 4 30 2 0 6 -13 8 -30z
m-77 10 c3 -5 -1 -10 -9 -10 -9 0 -16 5 -16 10 0 6 4 10 9 10 6 0 13 -4 16
-10z m-47 -133 c2 -10 -3 -17 -12 -17 -18 0 -29 16 -21 31 9 14 29 6 33 -14z
m-2565 -144 c-7 -2 -19 -2 -25 0 -7 3 -2 5 12 5 14 0 19 -2 13 -5z m2027 -473
c0 -5 -5 -10 -11 -10 -5 0 -7 5 -4 10 3 6 8 10 11 10 2 0 4 -4 4 -10z m134
-21 c-8 -14 -24 -10 -24 6 0 9 6 12 15 9 8 -4 12 -10 9 -15z m-134 -19 c0 -5
-4 -10 -10 -10 -5 0 -10 5 -10 10 0 6 5 10 10 10 6 0 10 -4 10 -10z m407 -72
c-2 -13 -4 -5 -4 17 -1 22 1 32 4 23 2 -10 2 -28 0 -40z m-491 -2 c-3 -14 -15
-28 -27 -31 -30 -10 -31 -3 -2 33 28 37 39 36 29 -2z m191 1 c-6 -20 -27 -19
-27 2 0 14 5 19 15 14 9 -3 14 -10 12 -16z m339 -24 c-10 -10 -19 5 -10 18 6
11 8 11 12 0 2 -7 1 -15 -2 -18z m-596 -37 c0 -15 -3 -16 -15 -6 -8 7 -15 24
-15 38 0 25 1 25 15 6 8 -10 15 -27 15 -38z m85 44 c3 -5 1 -10 -4 -10 -6 0
-11 5 -11 10 0 6 2 10 4 10 3 0 8 -4 11 -10z m409 -29 c7 -10 -27 -21 -66 -21
-37 0 -45 18 -11 23 51 8 72 7 77 -2z m-556 -54 c3 -25 -5 -32 -31 -28 -8 1
-63 -8 -142 -25 -59 -12 -85 -16 -85 -11 0 23 14 33 40 29 16 -2 43 3 61 12
18 9 41 14 52 10 25 -8 77 14 77 33 0 26 25 8 28 -20z m-93 -5 c-3 -3 -11 0
-18 7 -9 10 -8 11 6 5 10 -3 15 -9 12 -12z m480 8 c3 -5 1 -10 -4 -10 -6 0
-11 5 -11 10 0 6 2 10 4 10 3 0 8 -4 11 -10z m225 -20 c0 -5 -18 -10 -40 -10
-22 0 -40 5 -40 10 0 6 18 10 40 10 22 0 40 -4 40 -10z m-480 -40 c0 -5 -4
-10 -10 -10 -5 0 -10 5 -10 10 0 6 5 10 10 10 6 0 10 -4 10 -10z m-555 -10 c3
-6 -1 -7 -9 -4 -18 7 -21 14 -7 14 6 0 13 -4 16 -10z m-1480 -20 c3 -6 -1 -7
-9 -4 -18 7 -21 14 -7 14 6 0 13 -4 16 -10z m593 3 c-26 -2 -71 -2 -100 0 -29
2 -8 3 47 3 55 0 79 -1 53 -3z m475 0 c-7 -2 -21 -2 -30 0 -10 3 -4 5 12 5 17
0 24 -2 18 -5z m417 -19 c0 -8 9 -13 21 -11 17 1 22 -4 24 -25 3 -25 0 -28
-23 -28 -25 1 -26 2 -9 14 23 18 6 30 -29 22 -21 -6 -24 -3 -24 23 0 24 3 28
20 24 11 -3 20 -12 20 -19z m40 16 c0 -5 -4 -10 -10 -10 -5 0 -10 5 -10 10 0
6 5 10 10 10 6 0 10 -4 10 -10z m650 -40 c0 -29 -4 -40 -15 -40 -11 0 -15 11
-15 40 0 29 4 40 15 40 11 0 15 -11 15 -40z m243 33 c-7 -2 -19 -2 -25 0 -7 3
-2 5 12 5 14 0 19 -2 13 -5z m-467 -30 c-10 -10 -19 5 -10 18 6 11 8 11 12 0
2 -7 1 -15 -2 -18z m-2066 -3 c0 -5 -15 -9 -32 -9 l-33 1 30 8 c17 4 31 8 33
9 1 0 2 -3 2 -9z m40 0 c0 -5 -4 -10 -10 -10 -5 0 -10 5 -10 10 0 6 5 10 10
10 6 0 10 -4 10 -10z m1638 -15 c-3 -3 -9 2 -12 12 -6 14 -5 15 5 6 7 -7 10
-15 7 -18z m107 15 c3 -6 -2 -13 -12 -17 -10 -4 -21 -11 -25 -17 -5 -6 -8 -2
-8 10 0 11 3 24 7 27 10 10 31 8 38 -3z m654 -12 c10 -27 -14 -58 -46 -58 -32
0 -54 -27 -47 -56 5 -20 2 -26 -13 -30 -11 -3 -27 -24 -38 -50 -20 -50 -32
-55 -41 -19 -3 14 -10 25 -15 25 -21 0 -8 40 15 46 26 6 36 29 36 82 0 17 5
32 10 32 6 0 10 7 10 15 0 13 4 14 20 5 14 -7 26 -7 39 -1 10 6 21 8 24 4 4
-3 9 2 13 11 9 22 23 20 33 -6z m-899 -13 c0 -8 -4 -15 -10 -15 -5 0 -10 7
-10 15 0 8 5 15 10 15 6 0 10 -7 10 -15z m-1557 -2 c-7 -2 -21 -2 -30 0 -10 3
-4 5 12 5 17 0 24 -2 18 -5z m42 -3 c-3 -5 -10 -10 -16 -10 -5 0 -9 5 -9 10 0
6 7 10 16 10 8 0 12 -4 9 -10z m137 -2 c-9 -9 -15 -9 -24 0 -9 9 -7 12 12 12
19 0 21 -3 12 -12z m61 5 c-7 -2 -19 -2 -25 0 -7 3 -2 5 12 5 14 0 19 -2 13
-5z m394 1 c-3 -3 -12 -4 -19 -1 -8 3 -5 6 6 6 11 1 17 -2 13 -5z m863 -4 c0
-5 -2 -10 -4 -10 -2 0 -12 -3 -22 -7 -16 -6 -17 -5 -4 10 17 19 30 22 30 7z
m1053 -7 c-7 -2 -19 -2 -25 0 -7 3 -2 5 12 5 14 0 19 -2 13 -5z m37 0 c-1 -20
-30 -44 -47 -40 -16 4 -15 6 5 12 12 4 22 14 22 21 0 8 5 14 10 14 6 0 10 -3
10 -7z m-2653 -25 c-3 -8 -6 -5 -6 6 -1 11 2 17 5 13 3 -3 4 -12 1 -19z m2177
1 c5 -4 -4 -11 -20 -14 -16 -4 -35 -9 -42 -11 -23 -7 -3 -22 38 -29 42 -7 52
-21 24 -32 -10 -4 -22 1 -29 10 -21 29 -43 20 -56 -23 -7 -22 -18 -40 -26 -40
-9 0 -13 13 -13 40 0 22 5 40 10 40 6 0 10 17 10 39 l0 39 48 -5 c26 -3 51 -9
56 -14z m56 -4 c0 -9 -6 -12 -15 -9 -8 4 -12 10 -9 15 8 14 24 10 24 -6z m340
-45 c0 -5 -4 -10 -10 -10 -5 0 -10 5 -10 10 0 6 5 10 10 10 6 0 10 -4 10 -10z
m-5 -39 c3 -5 1 -12 -5 -16 -5 -3 -10 1 -10 9 0 18 6 21 15 7z m-685 -11 c0
-5 -5 -10 -11 -10 -5 0 -7 5 -4 10 3 6 8 10 11 10 2 0 4 -4 4 -10z m30 -30 c0
-5 -4 -10 -10 -10 -5 0 -10 5 -10 10 0 6 5 10 10 10 6 0 10 -4 10 -10z m-76
-14 c-3 -8 3 -16 16 -19 12 -3 19 -10 15 -16 -11 -18 -29 -12 -41 14 -11 23
-10 26 13 34 1 1 0 -5 -3 -13z m206 -31 c0 -13 8 -29 18 -34 16 -10 16 -10 0
-11 -18 0 -58 33 -58 48 0 13 12 22 27 22 7 0 13 -11 13 -25z m164 -91 c10
-26 7 -34 -14 -34 -11 0 -20 4 -20 9 0 17 12 41 20 41 4 0 11 -7 14 -16z m33
-21 c-3 -10 -5 -4 -5 12 0 17 2 24 5 18 2 -7 2 -21 0 -30z m190 -5 c-3 -8 -6
-5 -6 6 -1 11 2 17 5 13 3 -3 4 -12 1 -19z m-437 -9 c0 -12 7 -27 15 -33 20
-14 34 -126 16 -126 -6 0 -11 -17 -11 -40 0 -22 -4 -40 -10 -40 -5 0 -10 5
-10 11 0 11 -20 10 -83 -6 -19 -5 -27 -2 -31 13 -11 32 -52 44 -133 36 -77 -7
-101 -24 -33 -24 22 0 40 -4 40 -10 0 -5 -15 -10 -34 -10 -19 0 -41 -3 -50 -6
-13 -5 -16 2 -16 35 0 23 5 41 10 41 6 0 10 6 10 14 0 8 9 17 19 21 11 3 23
15 26 26 4 10 13 19 21 19 8 0 14 5 14 10 0 6 -18 10 -40 10 -71 0 -43 18 40
25 58 5 80 11 80 21 0 10 12 14 40 14 22 0 40 5 40 10 0 6 18 10 40 10 34 0
40 -3 40 -21z m-1167 4 c-7 -2 -19 -2 -25 0 -7 3 -2 5 12 5 14 0 19 -2 13 -5z
m910 -10 c-13 -2 -33 -2 -45 0 -13 2 -3 4 22 4 25 0 35 -2 23 -4z m307 -3 c0
-5 -4 -10 -10 -10 -5 0 -10 5 -10 10 0 6 5 10 10 10 6 0 10 -4 10 -10z m54
-47 c7 -20 4 -23 -23 -23 -36 0 -42 23 -13 50 18 18 24 14 36 -27z m150 22 c3
-8 1 -15 -4 -15 -6 0 -10 7 -10 15 0 8 2 15 4 15 2 0 6 -7 10 -15z m66 0 c0
-8 -4 -15 -10 -15 -5 0 -7 7 -4 15 4 8 8 15 10 15 2 0 4 -7 4 -15z m-982 -188
c2 -12 -3 -17 -17 -17 -12 0 -21 6 -21 13 0 31 32 34 38 4z m117 -7 c3 -5 1
-10 -4 -10 -6 0 -11 5 -11 10 0 6 2 10 4 10 3 0 8 -4 11 -10z m488 -30 c-3
-11 -9 -20 -14 -20 -5 0 -9 9 -9 20 0 11 6 20 14 20 9 0 12 -7 9 -20z m-1393
-10 c55 -4 -7 -5 -145 -2 -132 3 -242 6 -244 8 -7 7 290 2 389 -6z m-390 -40
c0 -5 -7 -7 -15 -4 -8 4 -15 8 -15 10 0 2 7 4 15 4 8 0 15 -4 15 -10z m1540
-19 c0 -6 -4 -13 -10 -16 -5 -3 -10 1 -10 9 0 9 5 16 10 16 6 0 10 -4 10 -9z
m-357 -28 c-13 -2 -33 -2 -45 0 -13 2 -3 4 22 4 25 0 35 -2 23 -4z m74 -185
c-2 -13 -4 -3 -4 22 0 25 2 35 4 23 2 -13 2 -33 0 -45z m303 22 c0 -5 -4 -10
-10 -10 -5 0 -10 5 -10 10 0 6 5 10 10 10 6 0 10 -4 10 -10z m-920 -110 c0 -5
-5 -10 -11 -10 -5 0 -7 5 -4 10 3 6 8 10 11 10 2 0 4 -4 4 -10z m-380 -19 c0
-6 -4 -13 -10 -16 -5 -3 -10 1 -10 9 0 9 5 16 10 16 6 0 10 -4 10 -9z m887 3
c-3 -3 -12 -4 -19 -1 -8 3 -5 6 6 6 11 1 17 -2 13 -5z m50 0 c-3 -3 -12 -4
-19 -1 -8 3 -5 6 6 6 11 1 17 -2 13 -5z m363 -94 c0 -5 -5 -10 -11 -10 -5 0
-7 5 -4 10 3 6 8 10 11 10 2 0 4 -4 4 -10z m-1160 -10 c0 -5 -4 -10 -10 -10
-5 0 -10 5 -10 10 0 6 5 10 10 10 6 0 10 -4 10 -10z m640 0 c0 -5 -7 -7 -15
-4 -8 4 -15 8 -15 10 0 2 7 4 15 4 8 0 15 -4 15 -10z m120 -5 c0 -8 -4 -15 -9
-15 -13 0 -22 16 -14 24 11 11 23 6 23 -9z m37 -7 c-3 -8 -6 -5 -6 6 -1 11 2
17 5 13 3 -3 4 -12 1 -19z m-257 -43 c0 -8 -6 -15 -14 -15 -8 0 -16 7 -20 15
-4 10 1 15 14 15 11 0 20 -7 20 -15z m97 9 c-3 -3 -12 -4 -19 -1 -8 3 -5 6 6
6 11 1 17 -2 13 -5z m-1542 -22 c-3 -3 -11 0 -18 7 -9 10 -8 11 6 5 10 -3 15
-9 12 -12z m202 2 c-3 -3 -12 -4 -19 -1 -8 3 -5 6 6 6 11 1 17 -2 13 -5z m13
-30 c0 -12 -4 -12 -20 -4 -11 6 -20 12 -20 13 0 2 9 3 20 4 12 1 20 -4 20 -13z
m-339 -57 c-10 -9 -11 -8 -5 6 3 10 9 15 12 12 3 -3 0 -11 -7 -18z m629 -17
c0 -5 -5 -10 -11 -10 -5 0 -7 5 -4 10 3 6 8 10 11 10 2 0 4 -4 4 -10z m593
-77 c-7 -2 -19 -2 -25 0 -7 3 -2 5 12 5 14 0 19 -2 13 -5z"/>
<path d="M3680 1055 c0 -11 11 -15 43 -15 44 1 37 11 -15 24 -21 5 -28 3 -28
-9z"/>
<path d="M4585 3260 c-3 -5 -1 -10 4 -10 6 0 11 5 11 10 0 6 -2 10 -4 10 -3 0
-8 -4 -11 -10z"/>
<path d="M4484 3194 c-18 -14 -18 -15 4 -4 12 6 22 13 22 15 0 8 -5 6 -26 -11z"/>
<path d="M4701 3194 c0 -11 3 -14 6 -6 3 7 2 16 -1 19 -3 4 -6 -2 -5 -13z"/>
<path d="M4500 3180 c-9 -6 -10 -10 -3 -10 6 0 15 5 18 10 8 12 4 12 -15 0z"/>
<path d="M4535 3176 c-11 -7 -32 -16 -47 -20 -15 -3 -33 -12 -40 -19 -7 -8
-25 -17 -39 -20 -15 -4 -29 -13 -32 -20 -7 -18 48 -10 64 9 6 8 18 14 25 14 8
0 14 5 14 11 0 5 5 7 12 3 6 -4 17 1 24 10 6 9 21 18 32 19 12 0 18 6 15 14
-6 16 -4 16 -28 -1z"/>
<path d="M4405 3160 c-16 -7 -17 -9 -3 -9 9 -1 20 4 23 9 7 11 7 11 -20 0z"/>
<path d="M4547 3133 c-11 -10 -8 -43 3 -43 6 0 10 11 10 25 0 26 -2 29 -13 18z"/>
<path d="M4218 3103 c7 -3 16 -2 19 1 4 3 -2 6 -13 5 -11 0 -14 -3 -6 -6z"/>
<path d="M4158 3093 c7 -3 16 -2 19 1 4 3 -2 6 -13 5 -11 0 -14 -3 -6 -6z"/>
</g>
</svg>
