<?xml version="1.0" standalone="no"?>
<!DOCTYPE svg PUBLIC "-//W3C//DTD SVG 20010904//EN"
 "http://www.w3.org/TR/2001/REC-SVG-20010904/DTD/svg10.dtd">
<svg version="1.0" xmlns="http://www.w3.org/2000/svg"
 width="732.000000pt" height="204.000000pt" viewBox="0 0 732.000000 204.000000"
 preserveAspectRatio="xMidYMid meet">

<g transform="translate(0.000000,204.000000) scale(0.100000,-0.100000)"
fill="#000000" stroke="none">
<path d="M1292 1970 c3 -8 45 -156 94 -327 49 -172 91 -313 94 -313 3 0 13 55
23 121 l18 122 -98 176 c-101 183 -138 247 -131 221z"/>
<path d="M2821 1450 c-1 -3 -19 -241 -39 -530 l-37 -525 -655 -31 c-360 -17
-628 -32 -595 -33 33 -1 355 -17 715 -35 360 -18 656 -32 657 -32 1 1 -9 269
-21 596 -13 327 -24 593 -25 590z"/>
<path d="M893 417 c-260 -67 -470 -123 -468 -125 5 -6 908 119 917 127 4 3 11
32 16 64 5 31 9 57 8 56 -1 0 -213 -55 -473 -122z"/>
<path d="M388 283 c7 -3 16 -2 19 1 4 3 -2 6 -13 5 -11 0 -14 -3 -6 -6z"/>
</g>
</svg>
